<svg xmlns="http://www.w3.org/2000/svg" viewBox="0 0 64 64" fill="none">
  <defs>
    <linearGradient id="bg" x1="8" y1="4" x2="56" y2="60" gradientUnits="userSpaceOnUse">
      <stop stop-color="#0F766E"/>
      <stop offset="0.55" stop-color="#2563EB"/>
      <stop offset="1" stop-color="#7C3AED"/>
    </linearGradient>
  </defs>
  <rect width="64" height="64" rx="16" fill="url(#bg)"/>
  <path d="M18 42V18h10.2c5.8 0 9.4 3.1 9.4 7.9 0 3.4-1.8 5.9-4.8 7.1L39 42h-7.1l-5.4-8.2H25V42H18Zm7-13.7h3c2.3 0 3.7-1.1 3.7-3s-1.4-2.9-3.7-2.9H25v5.9Z" fill="white"/>
  <path d="M41.5 42.5c4.1 0 7-2.1 7-5.4 0-2.7-1.7-4.2-5.1-5l-2.3-.5c-1.3-.3-1.8-.7-1.8-1.4 0-.8.8-1.4 2.1-1.4 1.5 0 2.5.6 2.9 1.6l5.2-1.5c-.9-3-3.7-4.9-8.2-4.9-4.4 0-7.3 2.2-7.3 5.5 0 2.7 1.8 4.3 5.2 5l2.3.5c1.3.3 1.8.7 1.8 1.4 0 .9-.8 1.5-2.3 1.5-1.7 0-2.9-.8-3.3-2l-5.3 1.5c.9 3.2 3.9 5.1 8.8 5.1Z" fill="white" fill-opacity="0.92"/>
  <path d="M14 48.5c6.5 1.8 13.8 2.2 22 .8 5.4-.9 10.6-2.7 14-4.8" stroke="white" stroke-opacity="0.35" stroke-width="2" stroke-linecap="round"/>
</svg>
