<svg xmlns="http://www.w3.org/2000/svg" width="1200" height="630" viewBox="0 0 1200 630" role="img" aria-label="Abstract fresh blue and mint illustration">
  <defs>
    <linearGradient id="background" x1="48" y1="34" x2="1150" y2="598" gradientUnits="userSpaceOnUse">
      <stop stop-color="#F8FEFE"/>
      <stop offset=".52" stop-color="#EAF8F8"/>
      <stop offset="1" stop-color="#DCEFF8"/>
    </linearGradient>
    <linearGradient id="flow" x1="421" y1="200" x2="965" y2="501" gradientUnits="userSpaceOnUse">
      <stop stop-color="#65D6D1"/>
      <stop offset="1" stop-color="#4A9FE8"/>
    </linearGradient>
    <linearGradient id="leaf" x1="776" y1="115" x2="1034" y2="396" gradientUnits="userSpaceOnUse">
      <stop stop-color="#2FAE9B"/>
      <stop offset="1" stop-color="#4A9FE8"/>
    </linearGradient>
    <filter id="blur" x="-30%" y="-30%" width="160%" height="160%">
      <feGaussianBlur stdDeviation="28"/>
    </filter>
  </defs>

  <rect width="1200" height="630" rx="44" fill="url(#background)"/>
  <circle cx="118" cy="96" r="155" fill="#D4F7F3" opacity=".8" filter="url(#blur)"/>
  <circle cx="1080" cy="558" r="178" fill="#A8D6F5" opacity=".36" filter="url(#blur)"/>

  <g fill="none" stroke="url(#flow)" stroke-linecap="round">
    <path d="M-42 439C137 294 254 498 428 392c146-89 199-269 392-188 144 60 185 181 414 82" stroke-width="26" opacity=".16"/>
    <path d="M-33 489c180-129 314 59 481-58 159-111 182-280 387-213 137 45 217 170 401 111" stroke-width="11" opacity=".62"/>
    <path d="M35 536c168-87 285 76 457-8 125-61 178-198 332-172 139 24 218 133 352 91" stroke-width="5" opacity=".85"/>
  </g>

  <g transform="translate(749 106)">
    <circle cx="165" cy="165" r="143" fill="#FFFFFF" fill-opacity=".5"/>
    <path d="M108 260c22-125 84-203 198-231-4 112-74 205-198 231Z" fill="url(#leaf)"/>
    <path d="M129 242c48-67 96-119 151-162" fill="none" stroke="#F8FEFE" stroke-width="10" stroke-linecap="round"/>
    <path d="M82 281c66 24 140 24 210 0" fill="none" stroke="#2FAE9B" stroke-width="12" stroke-linecap="round" opacity=".8"/>
  </g>

  <g opacity=".96">
    <circle cx="205" cy="182" r="18" fill="#EAF9AE"/>
    <circle cx="305" cy="258" r="10" fill="#65D6D1"/>
    <circle cx="395" cy="150" r="13" fill="#4A9FE8"/>
    <circle cx="541" cy="232" r="7" fill="#EAF9AE"/>
  </g>

  <path d="M159 312c62-68 157-68 219 0-62 68-157 68-219 0Z" fill="#FFFFFF" fill-opacity=".58"/>
  <path d="M187 312c41-37 99-37 140 0-41 37-99 37-140 0Z" fill="#D4F7F3"/>
</svg>
