<svg xmlns="http://www.w3.org/2000/svg" width="1200" height="630" viewBox="0 0 1200 630" role="img" aria-labelledby="title desc">
  <title id="title">daliyMove 技术分享默认封面</title>
  <desc id="desc">Minimal editorial cover for daliyMove Tech Notes.</desc>
  <defs>
    <linearGradient id="bg" x1="0" y1="0" x2="1" y2="1">
      <stop offset="0" stop-color="#fbf8f1"/>
      <stop offset="0.56" stop-color="#f7f3ea"/>
      <stop offset="1" stop-color="#e4dbcb"/>
    </linearGradient>
    <radialGradient id="soft" cx="76%" cy="29%" r="48%">
      <stop offset="0" stop-color="#d9e6d2" stop-opacity=".88"/>
      <stop offset="1" stop-color="#d9e6d2" stop-opacity="0"/>
    </radialGradient>
    <pattern id="grain" width="120" height="120" patternUnits="userSpaceOnUse">
      <circle cx="18" cy="24" r="1" fill="#232b22" opacity=".045"/>
      <circle cx="86" cy="45" r="1" fill="#232b22" opacity=".035"/>
      <circle cx="48" cy="92" r="1" fill="#232b22" opacity=".04"/>
    </pattern>
    <filter id="shadow" x="-20%" y="-20%" width="140%" height="140%">
      <feDropShadow dx="0" dy="18" stdDeviation="18" flood-color="#232b22" flood-opacity=".10"/>
    </filter>
  </defs>
  <rect width="1200" height="630" rx="46" fill="url(#bg)"/>
  <rect width="1200" height="630" rx="46" fill="url(#soft)"/>
  <rect width="1200" height="630" rx="46" fill="url(#grain)"/>

  <g filter="url(#shadow)">
    <rect x="86" y="76" width="1028" height="478" rx="34" fill="#fbf8f1" fill-opacity=".48" stroke="#232b22" stroke-opacity=".12"/>
    <rect x="116" y="106" width="968" height="418" rx="26" fill="none" stroke="#3a5c3e" stroke-opacity=".16" stroke-dasharray="10 12"/>
  </g>

  <g transform="translate(138 128)">
    <rect width="86" height="86" rx="24" fill="#3a5c3e"/>
    <text x="16" y="61" fill="#fbf8f1" font-family="Georgia, 'Noto Serif SC', serif" font-size="44" font-weight="700">dM</text>
  </g>

  <line x1="140" y1="248" x2="140" y2="452" stroke="#9a6b3f" stroke-width="5" stroke-linecap="round"/>
  <text x="246" y="178" fill="#9a6b3f" font-family="IBM Plex Mono, Consolas, monospace" font-size="18" font-weight="700" letter-spacing="4">DALIYMOVE / TECH SHARE</text>
  <text x="246" y="210" fill="#646e62" font-family="Manrope, 'Noto Sans SC', sans-serif" font-size="18">长期主义 · 个人知识分享</text>

  <text x="180" y="304" fill="#232b22" font-family="Fraunces, Georgia, 'Noto Serif SC', serif" font-size="76" font-weight="700">daliyMove</text>
  <text x="180" y="382" fill="#232b22" font-family="Fraunces, Georgia, 'Noto Serif SC', serif" font-size="70" font-weight="700">技术分享</text>
  <path d="M184 394c64-14 118 14 182 0s108-14 172 0" fill="none" stroke="#4f7a52" stroke-width="5" stroke-linecap="round" opacity=".85"/>

  <text x="184" y="438" fill="#3a4540" font-family="Manrope, 'Noto Sans SC', sans-serif" font-size="25" font-weight="700">每天一点技术，持续向前</text>
  <text x="184" y="474" fill="#646e62" font-family="Manrope, 'Noto Sans SC', sans-serif" font-size="21">前端 · 工程实践 · 工具方法</text>

  <g transform="translate(830 130)">
    <circle cx="112" cy="112" r="112" fill="#3a5c3e" opacity=".96"/>
    <path d="M68 150c57-13 90-54 100-113-58 20-92 61-100 113Z" fill="#fbf8f1"/>
    <path d="M81 143c25-33 53-62 80-85" fill="none" stroke="#3a5c3e" stroke-width="4" stroke-linecap="round" opacity=".75"/>
  </g>

  <g transform="translate(184 496)">
    <circle cx="0" cy="0" r="6" fill="#4f7a52"/>
    <path d="M18 0H880" stroke="#4f7a52" stroke-width="2" stroke-linecap="round" stroke-dasharray="2 14" opacity=".48"/>
    <circle cx="900" cy="0" r="6" fill="#4f7a52"/>
    <text x="0" y="38" fill="#646e62" font-family="IBM Plex Mono, Consolas, monospace" font-size="22">daliymove.github.io/daliymove-tech-share</text>
  </g>
</svg>
